<svg width="221" height="327" viewBox="0 0 221 327" fill="none" xmlns="http://www.w3.org/2000/svg">
<path fill-rule="evenodd" clip-rule="evenodd" d="M74.2243 48.8469C69.9093 43.6142 66.9888 37.2014 67.4768 30.0157C68.8829 9.31173 96.7797 13.8663 102.206 24.316C107.633 34.7656 106.988 61.2719 99.9746 63.1395C97.1777 63.8843 91.2195 62.0598 85.1555 58.2837L88.9618 86.1035H66.4872L74.2243 48.8469Z" fill="#B28B67"/>
<path fill-rule="evenodd" clip-rule="evenodd" d="M57.6785 23.1238C56.9526 22.3807 56.5566 21.3199 56.2141 20.3126C55.8584 19.2663 55.5127 18.2092 55.2766 17.1201C54.8047 14.9441 54.8002 12.4416 56.3028 10.7519C57.5078 9.39698 59.3159 8.78925 60.9847 8.65717C62.0965 8.56908 63.2384 8.72995 64.3041 9.09191C65.3615 9.45099 66.273 10.1666 67.2981 10.6108C67.3372 8.26584 67.726 5.81218 68.8776 3.80992C69.9856 1.88341 71.7523 0.802332 73.7643 0.516322C75.8294 0.222803 77.8686 0.722046 79.7173 1.7549C80.1802 2.01357 80.6387 2.28456 81.0775 2.59127C81.4449 2.84811 81.8269 3.15742 82.2581 3.26187C82.7387 3.37845 82.9769 3.09167 83.2893 2.72941C83.6555 2.30468 84.0681 1.93059 84.5048 1.59894C86.4354 0.132793 88.9686 -0.470033 91.2054 0.408792C92.236 0.813692 93.2381 1.50133 93.9373 2.44889C94.5606 3.29354 95.0052 4.63339 95.8654 5.22187C96.2304 5.47168 96.4882 5.14072 96.8205 4.8961C97.3198 4.52855 97.7959 4.12298 98.3011 3.76544C99.0108 3.26312 99.7792 2.88739 100.602 2.69071C101.807 2.40278 103.471 2.47026 103.816 4.10026C103.945 4.71252 103.846 5.36733 103.804 5.98421C103.747 6.83127 103.687 7.67803 103.616 8.52384C103.562 9.16604 103.494 9.78629 103.376 10.4169C103.314 10.7531 103.118 11.3798 103.257 11.7164C103.432 12.1372 104.236 11.898 104.58 11.9126C105.259 11.9416 105.941 12.0646 106.569 12.3644C107.056 12.5968 107.568 12.9386 107.773 13.5148C107.899 13.8688 107.866 14.2324 107.806 14.5966C107.735 15.0336 107.817 15.2654 107.87 15.7064C108.782 15.2424 111.943 14.2115 112.34 15.9002C112.473 16.4625 112.171 17.0979 111.941 17.5721C111.538 18.4038 111.009 19.1641 110.468 19.8891C109.34 21.4015 107.993 22.706 106.545 23.8217C108.242 24.6013 108.685 26.9011 107.215 28.2713C106.567 28.8762 105.694 29.0109 104.875 28.9722C104.576 28.958 104.144 28.839 103.908 28.8929C103.781 28.9219 103.645 29.033 103.47 29.0454C102.314 29.1272 101.01 28.8396 99.8811 28.5748C97.8689 28.1029 95.9639 27.118 94.4082 25.6179C94.0091 25.2331 93.6794 25.0116 93.1423 25.0173C92.6716 25.0222 92.2098 25.1556 91.7395 25.1679C90.4953 25.2007 89.3734 24.5723 88.218 24.154C88.1472 25.7666 87.7027 27.5426 87.0642 28.9934C86.5435 30.1764 85.4562 30.3483 84.3878 30.4521C80.9711 30.7842 77.5424 30.4136 74.1215 30.4185C77.433 31.1918 80.855 31.5105 84.1372 32.4206C85.6209 32.8318 84.4879 33.8649 83.8536 34.581C82.809 35.7603 82.0323 37.2214 81.4936 38.7607C79.8737 36.5791 77.0103 35.1417 74.4735 35.8119C71.6705 36.5523 69.6968 40.4683 71.4892 43.2837C72.5298 44.918 74.4089 45.5489 75.9725 46.2511C74.7527 47.5613 74.4577 49.4964 73.7235 51.1264C73.3614 51.9302 72.8532 52.8391 72.0434 53.1192C71.7438 53.2229 71.3925 53.2317 71.1561 53.484C70.8633 53.7964 70.7936 54.1457 70.4197 54.4142C68.9277 55.4858 66.5972 55.4032 65.2747 54.0048C64.0788 52.74 64.39 50.7386 65.3888 49.4563C63.7989 48.7717 60.9023 47.8911 61.5342 45.3321C58.0891 45.0958 49.7245 39.3234 54.3484 35.1054C51.8108 33.6237 49.4795 30.0027 51.1094 26.8108C52.3646 24.3529 55.2835 23.2542 57.6785 23.1238Z" fill="#191847"/>
<path fill-rule="evenodd" clip-rule="evenodd" d="M25.867 207.036H98.2113L107.691 327H0L25.867 207.036Z" fill="#C5CFD6"/>
<path fill-rule="evenodd" clip-rule="evenodd" d="M25.867 207.036H48.1169L61.434 327H0L25.867 207.036Z" fill="black" fill-opacity="0.1"/>
<path fill-rule="evenodd" clip-rule="evenodd" d="M180.689 186.483C188.403 181.698 201.344 187.846 201.335 194.689C201.308 215.165 183.221 311.667 182.277 317.767C181.332 323.868 171.216 325.479 170.627 317.787C169.689 305.548 167.948 263.18 169.69 243.569C170.409 235.474 171.184 227.765 171.947 220.887C162.456 238.594 147.777 263.947 127.911 296.945L117.127 291.854C125.596 263.028 132.54 242.677 137.96 230.802C147.24 210.47 155.941 193.057 159.603 186.924C165.364 177.276 175.391 180.643 180.689 186.483Z" fill="#B28B67"/>
<path fill-rule="evenodd" clip-rule="evenodd" d="M117.898 275.846L154.913 185.255C163.78 170.519 188.642 188.254 185.618 196.801C178.753 216.206 143.837 279.028 141.792 284.809L117.898 275.846Z" fill="#1F28CF"/>
<path fill-rule="evenodd" clip-rule="evenodd" d="M115.842 286.142C113.536 288.103 112.036 289.704 111.342 290.947C110.498 292.457 109.509 294.808 108.377 297.997C110.073 299.009 125.32 308.103 154.118 325.28C157.575 321.929 158.114 319.328 155.734 317.477C153.354 315.626 151.39 314.064 149.841 312.793L134.054 290.321C133.75 289.888 133.164 289.792 132.746 290.106C132.738 290.111 132.731 290.117 132.724 290.122L129.444 292.732C126.434 292.461 124.189 291.883 122.706 290.999C121.502 290.281 120.12 288.786 118.56 286.515L118.56 286.515C117.961 285.644 116.792 285.439 115.948 286.058C115.912 286.084 115.876 286.112 115.842 286.142Z" fill="#E4E4E4"/>
<path fill-rule="evenodd" clip-rule="evenodd" d="M168.258 312.877C167.21 315.766 166.686 317.928 166.686 319.363C166.686 321.107 166.968 323.653 167.53 327C169.489 327 187.095 327 220.347 327C221.72 322.312 220.928 319.781 217.97 319.408C215.013 319.034 212.557 318.696 210.601 318.395L186.052 307.089C185.58 306.871 185.026 307.09 184.815 307.578C184.812 307.587 184.808 307.595 184.805 307.604L183.227 311.558C180.489 312.878 178.265 313.537 176.553 313.537C175.163 313.537 173.242 312.957 170.792 311.797L170.792 311.797C169.852 311.352 168.74 311.778 168.309 312.749C168.291 312.791 168.274 312.834 168.258 312.877Z" fill="#E4E4E4"/>
<path fill-rule="evenodd" clip-rule="evenodd" d="M203.929 201.65C203.929 227.352 192.114 287.306 192.107 292.965L166.686 292.985C170.407 239.489 171.727 212.453 170.644 211.877C169.021 211.012 104.11 218.572 84.6414 218.572C56.5683 218.572 44.955 200.283 44.0127 166.402H99.6245C110.948 167.654 170.01 179.962 191.944 184.192C201.335 186.004 203.929 194.569 203.929 201.65Z" fill="#2B44FF"/>
<path fill-rule="evenodd" clip-rule="evenodd" d="M108.288 106.13L140.792 87.7384C146.197 81.1071 151.522 75.9571 156.768 72.2881C158.372 71.5967 161.175 71.1783 158.553 75.9854C155.932 80.7926 153.383 85.9708 154.719 87.4518C156.055 88.9328 159.385 86.8639 160.978 89.3246C162.041 90.965 156.351 93.5564 143.909 97.0989L120.291 119.44L108.288 106.13ZM159.195 121.648L173.472 113.545C175.476 105.669 177.87 101.707 180.657 101.658C182.797 100.629 179.069 110.58 183.127 109.717C187.184 108.854 197.087 101.245 198.794 102.79C201.318 105.075 199.067 112.094 196.415 115.585C191.458 122.11 187.354 124.341 177.21 127.263C171.907 128.791 166.173 131.853 160.008 136.45L159.195 121.648Z" fill="#997659"/>
<path fill-rule="evenodd" clip-rule="evenodd" d="M92.4585 102.033C103.843 101.909 119.025 99.4246 135.224 88.8015L141.586 103.458C130.412 114.915 114.701 124.327 100.963 123.929C90.1372 123.615 84.6042 110.086 92.4585 102.033Z" fill="#2026A2"/>
<path fill-rule="evenodd" clip-rule="evenodd" d="M107.788 125.538C119.875 128.652 140.143 124.98 168.593 114.521C175.65 129.604 178.912 140.357 178.379 146.78C153.974 159.95 133.056 165.823 115.822 166.21C116.37 176.775 115.125 186.827 110.944 196.012C102.348 214.895 52.0146 197.408 35.091 200.85C24.4929 165.291 44.9846 150.84 45.0011 128.088C45.0192 103.172 64.3844 64.8195 67.2336 64.8195H93.2168C94.6504 83.8484 101.866 104.82 107.788 125.538Z" fill="#1F28CF"/>
</svg>
