<svg width="295" height="328" viewBox="0 0 295 328" fill="none" xmlns="http://www.w3.org/2000/svg">
<path fill-rule="evenodd" clip-rule="evenodd" d="M171.568 36.0505C176.016 30.7069 179.027 24.1583 178.524 16.8203C177.074 -4.32229 148.318 0.32882 142.724 10.9998C137.131 21.6708 137.795 48.7386 145.025 50.6458C147.908 51.4064 154.049 49.5433 160.3 45.6872L156.377 74.0964H179.544L171.568 36.0505Z" fill="#B28B67"/>
<path fill-rule="evenodd" clip-rule="evenodd" d="M164.36 24.5674C165.118 24.0345 166.023 23.7108 166.995 23.7108C169.661 23.7108 171.821 26.1436 171.821 28.6506C171.821 31.2587 170.618 33.2752 168.9 34.1307C169.817 35.9673 170.74 37.3001 171.821 37.5422C175.993 37.1102 181.474 26.4974 181.474 17.7831C181.474 8.24496 174.059 0 160.238 0C147.816 0 143.105 5.24229 142.863 9.87952C148.186 11.3769 157.488 11.9534 170.856 11.8554V12.8434L159.273 13.8313L157.342 19.759C160.414 19.5244 162.608 21.6806 164.36 24.5674Z" fill="#191847"/>
<path d="M189.197 328C148.147 328 114.869 295.489 114.869 255.386C114.869 215.282 148.147 182.771 189.197 182.771C230.246 182.771 263.524 215.282 263.524 255.386C263.524 295.489 230.246 328 189.197 328Z" fill="#C5CFD6"/>
<path fill-rule="evenodd" clip-rule="evenodd" d="M48.7382 316.796C61.1063 288.78 70.0507 264.384 73.641 251.513C79.7884 229.474 84.4649 210.081 85.6469 202.839C88.4655 185.569 63.9647 184.564 60.7262 193.146C55.8246 206.137 47.2675 248.818 36.9855 313.287L48.7382 316.796ZM192.2 228.872C180.853 224.282 141.114 209.915 121.948 205.851C116.44 204.683 111.102 203.598 106.083 202.617C91.1658 199.703 83.4372 227.246 97.8045 229.362C133.585 234.633 184.31 240.076 188.65 240.686C194.734 241.542 199.332 231.758 192.2 228.872Z" fill="#B28B67"/>
<path fill-rule="evenodd" clip-rule="evenodd" d="M96.9275 195.038L158.307 163.058V156.096H151.008C91.6254 171.583 61.2811 181.508 59.9747 185.871C59.9607 185.918 59.9478 185.965 59.9361 186.012C59.9062 186.052 59.8768 186.093 59.848 186.133C48.0796 202.698 41.0316 283.569 38.7184 289.624L61.2691 293.067C69.8954 260.329 97.4942 237.522 96.7611 198.311C96.959 197.16 97.009 196.07 96.9275 195.038Z" fill="#1F28CF"/>
<path fill-rule="evenodd" clip-rule="evenodd" d="M153.208 214.03C158.824 212.88 163.996 211.853 168.421 211.058C197.006 205.927 205.342 190.266 200.414 156.096H147.745C139.142 158.626 94.4303 177.816 71.232 188.023C55.8781 194.779 60.7181 219.132 69.413 225.47C69.4602 225.859 69.6167 226.123 69.8954 226.241C116.668 246.082 153.669 235.671 166.03 238.998L171.747 220.539L153.208 214.03Z" fill="#2B44FF"/>
<path fill-rule="evenodd" clip-rule="evenodd" d="M188.32 225.938C191.385 226.238 193.56 226.709 194.847 227.352C196.411 228.133 198.567 229.539 201.314 231.571C200.429 233.428 192.474 250.123 177.448 281.654C172.624 280.857 170.712 278.972 171.713 276.001C172.714 273.03 173.521 270.549 174.135 268.56L175.089 240.22C175.107 239.675 175.554 239.248 176.087 239.267C176.096 239.267 176.105 239.268 176.114 239.268L180.373 239.542C182.794 237.537 184.391 235.723 185.164 234.1C185.793 232.782 186.14 230.701 186.207 227.858L186.207 227.858C186.232 226.767 187.117 225.904 188.183 225.93C188.229 225.931 188.275 225.934 188.32 225.938Z" fill="#E4E4E4"/>
<path fill-rule="evenodd" clip-rule="evenodd" d="M54.3669 311.602C55.4469 314.552 55.9868 316.76 55.9868 318.225C55.9868 320.006 55.6968 322.606 55.1169 326.024C53.0975 326.024 34.9495 326.024 0.672832 326.024C-0.741975 321.237 0.0747325 318.653 3.12296 318.271C6.17118 317.889 8.70339 317.545 10.7196 317.237L36.0247 305.691C36.5116 305.469 37.0823 305.693 37.2993 306.191C37.3031 306.2 37.3067 306.208 37.3101 306.217L38.9367 310.255C41.7586 311.603 44.0516 312.276 45.8159 312.276C47.2493 312.276 49.2288 311.684 51.7545 310.499L51.7545 310.499C52.7238 310.044 53.8697 310.48 54.314 311.472C54.3332 311.514 54.3508 311.558 54.3669 311.602Z" fill="#E4E4E4"/>
<path fill-rule="evenodd" clip-rule="evenodd" d="M100.497 136.467L69.7056 159.609C61.3544 161.915 54.3773 164.784 48.7742 168.217C47.4507 169.451 45.851 171.951 51.3401 171.519C56.8292 171.087 62.6218 170.885 63.3792 172.802C64.1366 174.718 60.8149 177.009 62.3459 179.595C63.3666 181.318 68.1887 176.996 76.8121 166.629L107.303 153.688L100.497 136.467ZM239.836 126.828L222.836 129.979C242.567 170.051 253.135 191.239 254.54 193.542C257.7 198.724 254.51 208.062 253.306 212.987C260.3 214.787 257.715 203.915 266.565 206.333C274.642 208.541 281.43 213.956 289.116 206.953C290.061 206.092 290.789 203.361 287.642 201.898C279.802 198.251 268.243 191.479 266.393 188.897C263.872 185.376 255.02 164.687 239.836 126.828Z" fill="#B28B67"/>
<path fill-rule="evenodd" clip-rule="evenodd" d="M93.3237 138.983C89.3621 138.692 85.0528 139.364 80.4326 140.957C78.1592 141.741 76.9372 144.263 77.7032 146.589C78.1481 147.941 79.1657 148.929 80.3861 149.367C79.5021 150.027 78.6102 150.683 77.7104 151.336L85.4783 167.566C118.166 150.886 148.889 138.309 162.889 110.771C167.587 101.528 165.997 70.133 166.446 58.7116L156.122 54.3783C141.731 84.8238 122.255 114.033 93.3237 138.983Z" fill="#69A1AC"/>
<path fill-rule="evenodd" clip-rule="evenodd" d="M202.711 164.899C172.364 168.311 148.477 168.311 131.051 164.899C128.892 164.476 128.987 154.951 129.988 152.349C145.58 111.838 155.836 82.1818 155.836 54.0436C158.697 55.573 163.703 55.8022 170.856 54.7312C190.079 83.7286 198.915 117 202.711 164.899Z" fill="#191847"/>
<path fill-rule="evenodd" clip-rule="evenodd" d="M208.349 169.688C209.38 168.696 209.917 167.208 209.653 165.675L209.15 162.757C208.809 160.779 207.24 159.338 205.387 159.113C205.063 157.631 204.783 156.158 204.553 154.697C202.604 142.351 205.933 130.246 205.777 118.359C221.299 131.913 235.223 155.317 247.55 188.571L265.781 183.081C265.086 180.436 264.365 177.823 263.62 175.243C265.724 174.02 268.183 168.412 266.413 167.474C264.586 166.505 262.65 165.823 260.611 165.421C243.894 113.89 216.558 76.2037 178.602 52.3615H175.244L167.624 52.3615C170.856 96.1087 126.212 191.618 141.713 273.187C170.366 279.735 211.271 259.36 251.088 275.639C249.607 242.79 219.928 204.201 208.349 169.688V169.688Z" fill="#89C5CC"/>
<path fill-rule="evenodd" clip-rule="evenodd" d="M174.615 53.3494L179.595 69.0237L169.566 80.774L178.63 90.0079L156.703 128.434L183.517 90.0847L174.615 80.774L183.517 70.3901L174.615 53.3494Z" fill="black" fill-opacity="0.1"/>
<path fill-rule="evenodd" clip-rule="evenodd" d="M163.134 143.253C165.266 143.253 166.995 141.484 166.995 139.301C166.995 137.119 165.266 135.349 163.134 135.349C161.001 135.349 159.273 137.119 159.273 139.301C159.273 141.484 161.001 143.253 163.134 143.253ZM158.307 165.976C160.44 165.976 162.168 164.207 162.168 162.024C162.168 159.842 160.44 158.072 158.307 158.072C156.175 158.072 154.446 159.842 154.446 162.024C154.446 164.207 156.175 165.976 158.307 165.976ZM157.342 188.699C159.474 188.699 161.203 186.93 161.203 184.747C161.203 182.564 159.474 180.795 157.342 180.795C155.21 180.795 153.481 182.564 153.481 184.747C153.481 186.93 155.21 188.699 157.342 188.699Z" fill="black" fill-opacity="0.4"/>
</svg>
